HIERARCHY
ROOT Hips
{
	OFFSET 0.000000 0.000000 0.000000
	CHANNELS 6 Xposition Yposition Zposition Xrotation Yrotation Zrotation
	JOINT LeftUpLeg_virtual
	{
		OFFSET 0.000000 0.000000 0.000000
		CHANNELS 3 Xrotation Yrotation Zrotation
		JOINT LeftUpLeg
		{
			OFFSET 13.026900 -6.336304 -1.092800
			CHANNELS 3 Xrotation Yrotation Zrotation
			JOINT LeftLeg
			{
				OFFSET 0.524474 -46.096886 9.782700
				CHANNELS 3 Xrotation Yrotation Zrotation
				JOINT LeftFoot
				{
					OFFSET -0.524474 -53.427422 -12.948200
					CHANNELS 3 Xrotation Yrotation Zrotation
					JOINT LeftToeBase
					{
						OFFSET 0.192200 -14.009700 16.364100
						CHANNELS 3 Xrotation Yrotation Zrotation
						JOINT LeftToe_End
						{
							OFFSET -1.784700 -0.561700 9.474800
							CHANNELS 3 Xrotation Yrotation Zrotation
							End Site
							{
								OFFSET 0 0 0
							}
						}
					}
				}
			}
		}
	}
	JOINT RightUpLeg_virtual
	{
		OFFSET 0.000000 0.000000 0.000000
		CHANNELS 3 Xrotation Yrotation Zrotation
		JOINT RightUpLeg
		{
			OFFSET -12.883000 -6.336304 -1.092800
			CHANNELS 3 Xrotation Yrotation Zrotation
			JOINT RightLeg
			{
				OFFSET -0.524587 -46.096825 9.782800
				CHANNELS 3 Xrotation Yrotation Zrotation
				JOINT RightFoot
				{
					OFFSET 0.524587 -53.427383 -12.948300
					CHANNELS 3 Xrotation Yrotation Zrotation
					JOINT RightToeBase
					{
						OFFSET -0.192200 -14.009700 16.364100
						CHANNELS 3 Xrotation Yrotation Zrotation
						JOINT RightToe_End
						{
							OFFSET 1.784700 -0.561700 9.474800
							CHANNELS 3 Xrotation Yrotation Zrotation
							End Site
							{
								OFFSET 0 0 0
							}
						}
					}
				}
			}
		}
	}
	JOINT Spine_virtual
	{
		OFFSET 0.000000 0.000000 0.000000
		CHANNELS 3 Xrotation Yrotation Zrotation
		JOINT Spine
		{
			OFFSET 0.072000 7.257294 -0.789700
			CHANNELS 3 Xrotation Yrotation Zrotation
			JOINT Spine1
			{
				OFFSET 0.000000 12.508769 -0.658067
				CHANNELS 3 Xrotation Yrotation Zrotation
				JOINT Spine1_split
				{
					OFFSET 0.000000 12.508769 -0.658067
					CHANNELS 3 Xrotation Yrotation Zrotation
					JOINT Spine2
					{
						OFFSET 0.000000 12.508769 -0.658067
						CHANNELS 3 Xrotation Yrotation Zrotation
						JOINT Neck_virtual
						{
							OFFSET 0.000000 0.000000 0.000000
							CHANNELS 3 Xrotation Yrotation Zrotation
							JOINT Neck
							{
								OFFSET 0.000000 14.033295 7.520400
								CHANNELS 3 Xrotation Yrotation Zrotation
								JOINT Head
								{
									OFFSET 0.000000 8.198502 5.703100
									CHANNELS 3 Xrotation Yrotation Zrotation
									JOINT HeadTop_End
									{
										OFFSET 0.000000 17.760803 13.332701
										CHANNELS 3 Xrotation Yrotation Zrotation
										End Site
										{
											OFFSET 0 0 0
										}
									}
								}
							}
						}
						JOINT LeftShoulder_virtual
						{
							OFFSET 0.000000 0.000000 0.000000
							CHANNELS 3 Xrotation Yrotation Zrotation
							JOINT LeftShoulder
							{
								OFFSET 6.292450 5.785301 -0.669000
								CHANNELS 3 Xrotation Yrotation Zrotation
								JOINT LeftShoulder_split
								{
									OFFSET 6.292450 5.785301 -0.669000
									CHANNELS 3 Xrotation Yrotation Zrotation
									JOINT LeftArm
									{
										OFFSET 13.907140 -6.093903 1.965100
										CHANNELS 3 Xrotation Yrotation Zrotation
										JOINT LeftForeArm
										{
											OFFSET 34.140198 0.000000 0.000000
											CHANNELS 3 Xrotation Yrotation Zrotation
											JOINT LeftHand
											{
												OFFSET 40.960209 0.000000 0.000000
												CHANNELS 3 Xrotation Yrotation Zrotation
												End Site
												{
													OFFSET 0 0 0
												}
											}
										}
									}
								}
							}
						}
						JOINT RightShoulder_virtual
						{
							OFFSET 0.000000 0.000000 0.000000
							CHANNELS 3 Xrotation Yrotation Zrotation
							JOINT RightShoulder
							{
								OFFSET -6.292450 5.785301 -0.669000
								CHANNELS 3 Xrotation Yrotation Zrotation
								JOINT RightShoulder_split
								{
									OFFSET -6.292450 5.785301 -0.669000
									CHANNELS 3 Xrotation Yrotation Zrotation
									JOINT RightArm
									{
										OFFSET -13.907140 -6.093903 1.965100
										CHANNELS 3 Xrotation Yrotation Zrotation
										JOINT RightForeArm
										{
											OFFSET -34.140198 0.000000 0.000000
											CHANNELS 3 Xrotation Yrotation Zrotation
											JOINT RightHand
											{
												OFFSET -40.960209 0.000000 0.000000
												CHANNELS 3 Xrotation Yrotation Zrotation
												End Site
												{
													OFFSET 0 0 0
												}
											}
										}
									}
								}
							}
						}
					}
				}
			}
		}
	}
}
MOTION
Frames: 5
Frame Time: 0.03333333
2.985296 102.179161 1.479919 0.000000 0.000000 0.000000 6.572937 -66.761725 10.566852 -32.382914 5.074237 15.984820 39.004758 -4.504177 -6.240115 -10.356460 -2.944935 -12.976407 0.795865 -0.484641 1.102698 0.000000 0.000000 0.000000 0.530048 -61.774212 6.782984 -27.554667 -0.651868 -30.933326 37.692904 -2.778080 -3.208351 -11.501262 -0.578871 24.628609 -3.369766 2.348717 0.236098 0.000000 0.000000 0.000000 -3.758705 -64.823536 1.499703 7.538890 3.524985 -5.303308 6.470614 0.754651 -5.949105 2.389872 -1.924700 0.730226 0.000000 0.000000 0.000000 6.934782 1.262071 -5.144732 -14.365305 23.563767 4.318887 -1.764164 14.925459 1.681211 0.000000 0.000000 0.000000 6.483007 0.737898 -5.444728 -6.280971 -20.818456 -1.717740 -9.049012 1.042543 -2.622305 -13.643557 20.082486 -28.456672 0.372100 -33.150122 2.024020 0.000000 0.000000 0.000000 6.346351 1.208869 -5.249878 -3.985051 3.797259 6.331261 0.795738 -0.705886 0.122766 -38.542296 -22.281605 29.602730 -171.723756 60.835511 169.520036 0.000000 0.000000 0.000000 
0.573589 102.515656 2.008785 0.000000 0.000000 0.000000 6.202882 -66.829562 10.167748 -31.559996 7.547792 17.205976 39.005568 -5.628653 -6.340750 -9.983026 -3.313188 -11.299160 1.208683 -0.419491 0.836295 0.000000 0.000000 0.000000 1.059556 -62.275739 6.909679 -28.514573 -0.520944 -29.773406 42.961402 -2.362838 -2.858142 -11.403002 0.753435 20.539974 0.696315 2.475618 0.327069 0.000000 0.000000 0.000000 -2.970349 -64.986579 2.827755 7.205475 2.983505 -5.546219 5.652104 0.306086 -6.585684 0.689213 -2.489095 -0.109919 0.000000 0.000000 0.000000 5.865648 1.000118 -5.971685 -13.010244 23.498728 2.864651 -0.765211 15.033494 1.312463 0.000000 0.000000 0.000000 5.772124 0.449224 -5.950314 -5.935885 -20.107659 -0.599932 -9.073704 -0.768538 -0.905226 -15.534768 17.828453 -28.114618 0.885271 -35.625700 1.980662 0.000000 0.000000 0.000000 5.236382 0.685720 -5.822694 -4.222764 2.124461 6.039392 0.531164 -1.338560 0.644878 -39.293095 -22.677483 29.931426 -172.758092 57.285056 170.848986 0.000000 0.000000 0.000000 
-3.828719 103.114189 2.471180 0.000000 0.000000 0.000000 5.703761 -65.466844 9.813615 -30.083309 10.952299 18.750703 37.034553 -6.291337 -6.686433 -9.409125 -3.365516 -10.712754 1.771327 -0.295286 0.466646 0.000000 0.000000 0.000000 1.841469 -62.518900 7.551801 -32.854767 0.631985 -29.069483 51.668711 0.554091 -2.756469 -6.771415 4.208599 21.470109 -4.924916 2.473823 -0.381485 0.000000 0.000000 0.000000 -0.425729 -64.462868 5.456138 6.971709 2.441417 -5.284592 4.322831 -0.425062 -8.223514 -0.595650 -2.329747 -0.331232 0.000000 0.000000 0.000000 4.229312 0.372388 -7.645221 -11.354421 23.150004 0.077585 -0.269047 14.550849 1.990983 0.000000 0.000000 0.000000 4.383737 -0.149754 -7.451449 -5.508840 -18.151001 1.347912 -8.202057 -1.470491 0.254794 -18.030967 15.550843 -27.332240 0.764952 -39.678478 1.260186 0.000000 0.000000 0.000000 3.438538 -0.183958 -7.340248 -4.416038 0.853065 4.960306 1.789018 -0.303600 1.365376 -42.006630 -27.865645 30.278109 -173.587140 50.271377 172.453329 0.000000 0.000000 0.000000 
-9.492798 103.529427 2.781025 0.000000 0.000000 0.000000 5.602396 -63.221481 9.974174 -28.132769 14.511741 20.232742 33.826819 -6.761350 -6.993953 -8.463071 -3.497503 -12.000503 1.459318 -0.133283 0.153635 0.000000 0.000000 0.000000 3.301631 -61.985237 9.108182 -38.466437 2.851851 -28.774276 60.176405 4.587418 -3.376447 -0.928977 8.535917 24.788078 -16.690167 2.365077 -1.258867 0.000000 0.000000 0.000000 3.135877 -63.174633 8.836214 6.898672 1.934728 -4.693645 2.847138 -1.191864 -10.407396 -0.839006 -1.694988 -0.113219 0.000000 0.000000 0.000000 2.384360 -0.382672 -9.745037 -9.570465 22.474276 -3.470901 -0.489795 13.392492 3.368309 0.000000 0.000000 0.000000 2.613443 -0.849492 -9.529961 -5.310678 -15.269754 3.652684 -7.238546 -1.544481 0.916428 -21.078990 14.023537 -26.119299 0.213830 -45.273936 0.192048 0.000000 0.000000 0.000000 1.301346 -1.055139 -9.409571 -4.603155 0.336668 3.199763 4.103088 1.753816 1.519170 -47.165424 -35.554639 28.669234 -173.636222 43.885847 173.444649 0.000000 0.000000 0.000000 
-15.676605 103.475006 2.923138 0.000000 0.000000 0.000000 6.081440 -60.660413 10.957906 -25.984560 17.394865 21.485485 30.409518 -7.719619 -6.789141 -7.252034 -4.163548 -15.258684 0.083356 0.066405 -0.063243 0.000000 0.000000 0.000000 4.626549 -60.474720 10.890114 -43.043620 5.506295 -28.718138 65.379411 7.222948 -3.998592 3.676626 11.043667 26.177953 -25.068768 1.927207 -1.655401 0.000000 0.000000 0.000000 6.658252 -61.431725 12.186085 6.986362 1.460107 -4.005316 1.484627 -1.732480 -12.523944 -0.487256 -1.944132 0.294571 0.000000 0.000000 0.000000 0.720212 -0.968751 -11.684272 -8.014360 21.466455 -6.934294 -1.715990 12.094294 4.862019 0.000000 0.000000 0.000000 0.929641 -1.372923 -11.482848 -5.413414 -12.176814 6.335066 -5.981614 -1.379549 1.162140 -24.533375 13.453393 -24.523116 0.041591 -51.981558 -0.512180 0.000000 0.000000 0.000000 -0.707796 -1.638941 -11.421033 -4.912364 0.759723 0.650078 5.769167 2.969842 1.259015 -55.207613 -42.248371 23.457745 -173.156210 40.278582 173.740219 0.000000 0.000000 0.000000 
